<?xml version="1.0" encoding="utf-8"?>
<!-- Generator: Adobe Illustrator 19.2.1, SVG Export Plug-In . SVG Version: 6.00 Build 0)  -->
<svg version="1.1" id="Layer_1" xmlns="http://www.w3.org/2000/svg" xmlns:xlink="http://www.w3.org/1999/xlink" x="0px" y="0px"
	 viewBox="0 0 62 14" style="enable-background:new 0 0 62 14;" xml:space="preserve">
<style type="text/css">
	.st0{opacity:0.6;enable-background:new    ;}
	.st1{clip-path:url(#SVGID_2_);}
	.st2{clip-path:url(#SVGID_4_);enable-background:new    ;}
	.st3{clip-path:url(#SVGID_6_);}
	.st4{clip-path:url(#SVGID_8_);}
	.st5{clip-path:url(#SVGID_10_);enable-background:new    ;}
	.st6{clip-path:url(#SVGID_12_);}
	.st7{clip-path:url(#SVGID_14_);}
	.st8{clip-path:url(#SVGID_16_);fill:#596880;}
	.st9{clip-path:url(#SVGID_18_);}
	.st10{clip-path:url(#SVGID_20_);enable-background:new    ;}
	.st11{clip-path:url(#SVGID_22_);}
	.st12{clip-path:url(#SVGID_24_);}
	.st13{clip-path:url(#SVGID_26_);fill:#596880;}
	.st14{clip-path:url(#SVGID_28_);}
	.st15{clip-path:url(#SVGID_30_);enable-background:new    ;}
	.st16{clip-path:url(#SVGID_32_);}
	.st17{clip-path:url(#SVGID_34_);}
	.st18{clip-path:url(#SVGID_36_);fill:#596880;}
	.st19{clip-path:url(#SVGID_38_);}
	.st20{clip-path:url(#SVGID_40_);enable-background:new    ;}
	.st21{clip-path:url(#SVGID_42_);}
	.st22{clip-path:url(#SVGID_44_);}
	.st23{clip-path:url(#SVGID_46_);fill:#596880;}
	.st24{clip-path:url(#SVGID_48_);}
	.st25{clip-path:url(#SVGID_50_);enable-background:new    ;}
	.st26{clip-path:url(#SVGID_52_);}
	.st27{clip-path:url(#SVGID_54_);}
	.st28{clip-path:url(#SVGID_56_);fill:#596880;}
</style>
<g class="st0">
	<g>
		<defs>
			<rect id="SVGID_1_" width="62" height="14"/>
		</defs>
		<clipPath id="SVGID_2_">
			<use xlink:href="#SVGID_1_"  style="overflow:visible;"/>
		</clipPath>
		<g class="st1">
			<defs>
				<rect id="SVGID_3_" width="62" height="14"/>
			</defs>
			<clipPath id="SVGID_4_">
				<use xlink:href="#SVGID_3_"  style="overflow:visible;"/>
			</clipPath>
			<g class="st2">
				<g>
					<defs>
						<rect id="SVGID_5_" width="62" height="14"/>
					</defs>
					<clipPath id="SVGID_6_">
						<use xlink:href="#SVGID_5_"  style="overflow:visible;"/>
					</clipPath>
					<g class="st3">
						<defs>
							<rect id="SVGID_7_" x="21" y="6.5" width="40.5" height="1.4"/>
						</defs>
						<clipPath id="SVGID_8_">
							<use xlink:href="#SVGID_7_"  style="overflow:visible;"/>
						</clipPath>
						<g class="st4">
							<defs>
								<rect id="SVGID_9_" width="62" height="14"/>
							</defs>
							<clipPath id="SVGID_10_">
								<use xlink:href="#SVGID_9_"  style="overflow:visible;"/>
							</clipPath>
							<g class="st5">
								<g>
									<defs>
										<rect id="SVGID_11_" x="21" y="6" width="41" height="2"/>
									</defs>
									<clipPath id="SVGID_12_">
										<use xlink:href="#SVGID_11_"  style="overflow:visible;"/>
									</clipPath>
									<g class="st6">
										<defs>
											<path id="SVGID_13_" d="M60.7,8h-39C21.3,8,21,7.7,21,7.3c0-0.4,0.3-0.7,0.7-0.7h39c0.4,0,0.7,0.3,0.7,0.7
												C61.5,7.7,61.1,8,60.7,8"/>
										</defs>
										<clipPath id="SVGID_14_">
											<use xlink:href="#SVGID_13_"  style="overflow:visible;"/>
										</clipPath>
										<g class="st7">
											<defs>
												<rect id="SVGID_15_" x="21" y="6" width="41" height="2"/>
											</defs>
											<clipPath id="SVGID_16_">
												<use xlink:href="#SVGID_15_"  style="overflow:visible;"/>
											</clipPath>
											<rect x="16" y="1.5" class="st8" width="50.5" height="11.4"/>
										</g>
									</g>
								</g>
							</g>
						</g>
					</g>
					<g class="st3">
						<defs>
							<rect id="SVGID_17_" x="32.9" y="0.8" width="7.2" height="13"/>
						</defs>
						<clipPath id="SVGID_18_">
							<use xlink:href="#SVGID_17_"  style="overflow:visible;"/>
						</clipPath>
						<g class="st9">
							<defs>
								<rect id="SVGID_19_" width="62" height="14"/>
							</defs>
							<clipPath id="SVGID_20_">
								<use xlink:href="#SVGID_19_"  style="overflow:visible;"/>
							</clipPath>
							<g class="st10">
								<g>
									<defs>
										<rect id="SVGID_21_" x="32" width="9" height="14"/>
									</defs>
									<clipPath id="SVGID_22_">
										<use xlink:href="#SVGID_21_"  style="overflow:visible;"/>
									</clipPath>
									<g class="st11">
										<defs>
											<path id="SVGID_23_" d="M33.6,13.7c-0.2,0-0.4-0.1-0.5-0.2c-0.3-0.3-0.3-0.7,0-1l5.3-5.3L33.1,2c-0.3-0.3-0.3-0.7,0-1
												c0.3-0.3,0.7-0.3,1,0l5.8,5.8c0.1,0.1,0.2,0.3,0.2,0.5c0,0.2-0.1,0.4-0.2,0.5l-5.8,5.8C34,13.7,33.8,13.7,33.6,13.7"/>
										</defs>
										<clipPath id="SVGID_24_">
											<use xlink:href="#SVGID_23_"  style="overflow:visible;"/>
										</clipPath>
										<g class="st12">
											<defs>
												<rect id="SVGID_25_" x="32" width="9" height="14"/>
											</defs>
											<clipPath id="SVGID_26_">
												<use xlink:href="#SVGID_25_"  style="overflow:visible;"/>
											</clipPath>
											<rect x="27.9" y="-4.2" class="st13" width="17.2" height="23"/>
										</g>
									</g>
								</g>
							</g>
						</g>
					</g>
					<g class="st3">
						<defs>
							<rect id="SVGID_27_" x="43.6" y="0.8" width="7.2" height="13"/>
						</defs>
						<clipPath id="SVGID_28_">
							<use xlink:href="#SVGID_27_"  style="overflow:visible;"/>
						</clipPath>
						<g class="st14">
							<defs>
								<rect id="SVGID_29_" width="62" height="14"/>
							</defs>
							<clipPath id="SVGID_30_">
								<use xlink:href="#SVGID_29_"  style="overflow:visible;"/>
							</clipPath>
							<g class="st15">
								<g>
									<defs>
										<rect id="SVGID_31_" x="43" width="8" height="14"/>
									</defs>
									<clipPath id="SVGID_32_">
										<use xlink:href="#SVGID_31_"  style="overflow:visible;"/>
									</clipPath>
									<g class="st16">
										<defs>
											<path id="SVGID_33_" d="M44.3,13.7c-0.2,0-0.4-0.1-0.5-0.2c-0.3-0.3-0.3-0.7,0-1l5.3-5.3L43.8,2c-0.3-0.3-0.3-0.7,0-1
												c0.3-0.3,0.7-0.3,1,0l5.8,5.8c0.1,0.1,0.2,0.3,0.2,0.5c0,0.2-0.1,0.4-0.2,0.5l-5.8,5.8C44.7,13.7,44.5,13.7,44.3,13.7"/>
										</defs>
										<clipPath id="SVGID_34_">
											<use xlink:href="#SVGID_33_"  style="overflow:visible;"/>
										</clipPath>
										<g class="st17">
											<defs>
												<rect id="SVGID_35_" x="43" width="8" height="14"/>
											</defs>
											<clipPath id="SVGID_36_">
												<use xlink:href="#SVGID_35_"  style="overflow:visible;"/>
											</clipPath>
											<rect x="38.6" y="-4.2" class="st18" width="17.2" height="23"/>
										</g>
									</g>
								</g>
							</g>
						</g>
					</g>
					<g class="st3">
						<defs>
							<rect id="SVGID_37_" x="54.3" y="0.8" width="7.2" height="13"/>
						</defs>
						<clipPath id="SVGID_38_">
							<use xlink:href="#SVGID_37_"  style="overflow:visible;"/>
						</clipPath>
						<g class="st19">
							<defs>
								<rect id="SVGID_39_" width="62" height="14"/>
							</defs>
							<clipPath id="SVGID_40_">
								<use xlink:href="#SVGID_39_"  style="overflow:visible;"/>
							</clipPath>
							<g class="st20">
								<g>
									<defs>
										<rect id="SVGID_41_" x="54" width="8" height="14"/>
									</defs>
									<clipPath id="SVGID_42_">
										<use xlink:href="#SVGID_41_"  style="overflow:visible;"/>
									</clipPath>
									<g class="st21">
										<defs>
											<path id="SVGID_43_" d="M55,13.7c-0.2,0-0.4-0.1-0.5-0.2c-0.3-0.3-0.3-0.7,0-1l5.3-5.3L54.5,2c-0.3-0.3-0.3-0.7,0-1
												c0.3-0.3,0.7-0.3,1,0l5.8,5.8c0.1,0.1,0.2,0.3,0.2,0.5c0,0.2-0.1,0.4-0.2,0.5l-5.8,5.8C55.3,13.7,55.2,13.7,55,13.7"/>
										</defs>
										<clipPath id="SVGID_44_">
											<use xlink:href="#SVGID_43_"  style="overflow:visible;"/>
										</clipPath>
										<g class="st22">
											<defs>
												<rect id="SVGID_45_" x="54" width="8" height="14"/>
											</defs>
											<clipPath id="SVGID_46_">
												<use xlink:href="#SVGID_45_"  style="overflow:visible;"/>
											</clipPath>
											<rect x="49.3" y="-4.2" class="st23" width="17.2" height="23"/>
										</g>
									</g>
								</g>
							</g>
						</g>
					</g>
					<g class="st3">
						<defs>
							<rect id="SVGID_47_" x="0.6" y="1" width="7.2" height="13"/>
						</defs>
						<clipPath id="SVGID_48_">
							<use xlink:href="#SVGID_47_"  style="overflow:visible;"/>
						</clipPath>
						<g class="st24">
							<defs>
								<rect id="SVGID_49_" width="62" height="14"/>
							</defs>
							<clipPath id="SVGID_50_">
								<use xlink:href="#SVGID_49_"  style="overflow:visible;"/>
							</clipPath>
							<g class="st25">
								<g>
									<defs>
										<rect id="SVGID_51_" y="1" width="8" height="13"/>
									</defs>
									<clipPath id="SVGID_52_">
										<use xlink:href="#SVGID_51_"  style="overflow:visible;"/>
									</clipPath>
									<g class="st26">
										<defs>
											<path id="SVGID_53_" d="M1.3,14c-0.2,0-0.4-0.1-0.5-0.2c-0.3-0.3-0.3-0.7,0-1l5.3-5.3L0.8,2.2c-0.3-0.3-0.3-0.7,0-1
												c0.3-0.3,0.7-0.3,1,0L7.6,7c0.1,0.1,0.2,0.3,0.2,0.5c0,0.2-0.1,0.4-0.2,0.5l-5.8,5.8C1.7,13.9,1.5,14,1.3,14"/>
										</defs>
										<clipPath id="SVGID_54_">
											<use xlink:href="#SVGID_53_"  style="overflow:visible;"/>
										</clipPath>
										<g class="st27">
											<defs>
												<rect id="SVGID_55_" y="1" width="8" height="13"/>
											</defs>
											<clipPath id="SVGID_56_">
												<use xlink:href="#SVGID_55_"  style="overflow:visible;"/>
											</clipPath>
											<rect x="-4.4" y="-4" class="st28" width="17.2" height="23"/>
										</g>
									</g>
								</g>
							</g>
						</g>
					</g>
				</g>
			</g>
		</g>
	</g>
</g>
</svg>
